<?xml version="1.0" standalone="no"?>
<!DOCTYPE svg PUBLIC "-//W3C//DTD SVG 20010904//EN"
 "http://www.w3.org/TR/2001/REC-SVG-20010904/DTD/svg10.dtd">
<svg version="1.0" xmlns="http://www.w3.org/2000/svg"
 width="1080.000000pt" height="1080.000000pt" viewBox="0 0 1080.000000 1080.000000"
 preserveAspectRatio="xMidYMid meet">

<g transform="translate(0.000000,1080.000000) scale(0.100000,-0.100000)"
fill="#000000" stroke="none">
<path d="M4711 10257 c-128 -14 -206 -26 -208 -34 -4 -10 81 -912 92 -978 l5
-31 233 23 c127 12 256 27 285 32 127 25 233 101 263 187 16 49 16 137 -1 188
-24 74 -105 143 -190 161 l-34 7 36 19 c162 83 152 330 -17 413 -52 26 -72 30
-160 32 -55 1 -192 -7 -304 -19z m361 -153 c15 -8 35 -26 45 -40 23 -36 21
-108 -3 -141 -36 -48 -81 -62 -243 -79 -84 -9 -154 -14 -157 -12 -4 4 -33 261
-30 265 1 1 64 8 141 16 148 16 202 14 247 -9z m88 -432 c38 -28 63 -86 56
-128 -10 -53 -59 -102 -120 -119 -59 -16 -328 -45 -338 -36 -7 7 -34 279 -27
285 2 2 72 11 154 18 162 15 234 10 275 -20z"/>
<path d="M5709 10020 c-48 -12 -149 -50 -149 -57 0 -3 12 -31 26 -63 l26 -58
44 19 c114 51 244 45 309 -13 38 -33 61 -92 52 -130 l-6 -24 -108 12 c-150 18
-240 17 -298 -2 -161 -55 -197 -273 -64 -387 51 -44 124 -67 213 -67 85 0 131
12 181 46 l38 25 -6 -45 c-7 -50 -11 -48 103 -61 l56 -6 27 253 c15 139 27
273 27 298 -1 171 -141 272 -369 269 -36 -1 -82 -5 -102 -9z m173 -434 c59 -6
110 -15 113 -18 3 -3 3 -24 -1 -48 -14 -85 -92 -139 -202 -140 -109 0 -172 42
-172 115 0 22 7 51 16 63 31 45 70 49 246 28z"/>
<path d="M7426 9888 c-30 -49 -497 -930 -494 -933 12 -11 140 -76 143 -73 3 2
26 45 53 94 l48 89 91 32 91 31 6 -41 c3 -23 11 -117 17 -210 7 -95 17 -171
23 -176 21 -16 157 -84 160 -80 2 2 -7 123 -20 269 -13 146 -23 270 -24 277 0
6 84 39 188 74 103 34 191 64 195 67 5 2 -28 24 -73 48 l-83 44 -229 -71
c-127 -39 -231 -69 -233 -67 -2 2 66 131 150 288 l153 285 -70 37 c-38 21 -71
38 -73 38 -3 0 -11 -10 -19 -22z"/>
<path d="M6575 9850 c-133 -28 -236 -121 -283 -260 -40 -117 -36 -222 13 -320
27 -53 105 -129 161 -158 132 -67 314 -70 411 -6 l23 15 -26 52 c-15 28 -28
54 -30 56 -1 1 -26 -5 -55 -14 -114 -38 -260 4 -318 91 -80 121 -29 308 101
375 100 51 265 -1 334 -107 9 -13 20 -24 24 -24 15 0 110 63 110 72 0 22 -32
67 -77 109 -58 54 -141 95 -231 115 -74 15 -98 16 -157 4z"/>
<path d="M3227 9539 c-52 -43 -86 -106 -95 -175 l-7 -59 -35 63 c-19 34 -38
62 -43 62 -5 0 -38 -16 -73 -36 -49 -28 -64 -40 -59 -53 5 -14 224 -399 337
-594 l39 -68 70 38 c38 21 69 42 69 47 0 5 -45 88 -100 184 -55 96 -105 195
-111 218 -26 102 23 202 129 263 10 6 3 24 -25 74 -21 37 -43 67 -48 67 -6 0
-27 -14 -48 -31z"/>
<path d="M4015 9218 c-33 -17 -45 -40 -45 -81 0 -97 134 -134 170 -46 35 84
-48 169 -125 127z"/>
<path d="M2529 9083 c-133 -66 -215 -172 -240 -306 -45 -245 200 -494 447
-455 169 26 339 191 360 349 l6 46 -38 6 c-74 13 -94 9 -94 -15 -1 -37 -38
-110 -78 -152 -88 -91 -219 -111 -315 -48 l-28 19 226 182 c124 100 225 188
225 196 0 7 -31 45 -68 84 -89 92 -168 131 -263 131 -56 0 -77 -6 -140 -37z
m206 -123 c61 -29 81 -48 70 -65 -6 -7 -83 -73 -173 -145 l-163 -131 -16 38
c-40 91 -11 202 68 265 71 57 147 71 214 38z"/>
<path d="M8332 8649 l-373 -351 43 -47 c23 -25 139 -149 257 -274 l214 -228
55 54 55 55 -197 209 -197 208 103 98 103 98 55 -58 c30 -32 108 -114 172
-183 l117 -125 55 55 55 55 -170 180 -170 180 97 93 c53 50 99 92 104 92 4 0
92 -90 195 -200 l188 -200 53 47 c28 27 51 53 51 60 -1 6 -94 109 -207 230
-113 120 -224 237 -245 260 l-40 43 -373 -351z"/>
<path d="M7841 8951 c-17 -21 -31 -43 -31 -49 0 -5 63 -57 139 -116 l139 -106
31 42 c17 23 31 45 31 49 0 4 -63 55 -139 113 l-139 106 -31 -39z"/>
<path d="M1970 8521 c-14 -5 -44 -17 -66 -29 -132 -67 -222 -227 -196 -347 5
-25 8 -45 5 -45 -2 0 -24 16 -48 36 -23 20 -46 36 -50 36 -3 -1 -28 -29 -55
-62 l-49 -61 32 -28 c149 -128 789 -641 795 -637 4 3 29 31 54 64 l47 59 -159
129 -159 129 60 7 c141 16 266 140 300 297 13 64 -3 158 -39 225 -51 93 -161
184 -266 219 -51 17 -161 21 -206 8z m187 -182 c129 -61 192 -202 143 -317
-26 -60 -91 -124 -144 -142 -80 -26 -176 -1 -254 66 -100 85 -113 237 -29 334
75 87 179 108 284 59z"/>
<path d="M8855 7889 c-176 -105 -324 -195 -329 -199 -5 -5 9 -38 33 -79 l41
-70 177 106 c194 117 227 132 291 133 185 1 290 -239 150 -343 -18 -14 -117
-75 -220 -136 l-187 -111 40 -68 c23 -37 43 -69 45 -71 7 -8 449 264 490 301
116 107 108 277 -19 415 -50 54 -105 84 -172 92 l-50 6 62 38 62 38 -41 69
c-22 39 -43 70 -46 70 -4 0 -151 -86 -327 -191z"/>
<path d="M1422 7711 c-113 -42 -200 -134 -253 -268 -34 -86 -33 -216 4 -295
55 -121 201 -222 340 -235 177 -16 333 92 408 284 32 82 32 206 0 286 -32 82
-109 157 -207 204 -98 47 -206 56 -292 24z m214 -170 c57 -26 124 -88 145
-136 50 -108 -4 -249 -116 -308 -112 -58 -284 5 -348 127 -55 105 -3 261 105
315 56 27 156 28 214 2z"/>
<path d="M9317 7156 c-175 -50 -291 -171 -312 -323 -19 -142 67 -313 181 -360
24 -10 44 -21 44 -24 0 -3 -25 -13 -55 -23 -30 -9 -55 -20 -55 -25 0 -28 50
-146 61 -145 21 1 1003 325 1011 333 5 4 -4 41 -18 83 l-25 76 -207 -69 c-113
-38 -208 -69 -209 -69 -2 0 8 17 22 38 100 151 12 407 -168 487 -74 34 -192
43 -270 21z m187 -168 c64 -20 131 -91 151 -162 40 -137 -36 -257 -190 -301
-149 -44 -271 33 -305 192 -37 171 160 326 344 271z"/>
<path d="M636 6943 c-14 -42 -25 -78 -23 -79 9 -9 1014 -334 1022 -330 10 3
60 145 53 150 -5 4 -1015 336 -1021 336 -3 0 -17 -35 -31 -77z"/>
<path d="M985 6496 c-150 -48 -231 -178 -229 -371 1 -103 29 -177 94 -248 83
-91 194 -132 338 -125 101 5 161 29 229 91 128 118 168 350 87 508 -13 26 -28
51 -34 54 -11 7 -113 -53 -107 -64 43 -78 59 -189 37 -258 -29 -90 -100 -155
-186 -169 l-42 -6 23 128 c69 389 78 445 72 450 -24 24 -215 31 -282 10z m145
-128 c-3 -34 -78 -430 -83 -434 -12 -13 -98 48 -124 88 -41 62 -45 159 -9 233
38 77 93 112 179 114 20 1 37 0 37 -1z"/>
<path d="M9250 5553 c0 -171 5 -258 15 -308 45 -212 205 -364 418 -397 260
-40 493 108 572 362 14 44 18 109 22 318 l6 262 -517 0 -516 0 0 -237z m868
-105 c-3 -166 -4 -175 -31 -230 -34 -69 -94 -131 -162 -166 -46 -25 -60 -27
-165 -27 -132 0 -170 14 -248 89 -89 84 -114 178 -105 385 l6 121 354 0 355 0
-4 -172z"/>
<path d="M690 5658 l0 -84 305 -104 c168 -57 303 -106 300 -108 -2 -3 -138
-53 -302 -112 l-298 -108 1 -81 c1 -45 3 -83 6 -86 2 -2 176 64 386 147 l382
151 0 88 c0 73 -3 88 -17 94 -10 4 -178 67 -373 140 -195 73 -363 136 -372
140 -16 6 -18 -1 -18 -77z"/>
<path d="M1064 4945 c-189 -41 -293 -146 -302 -305 -10 -182 67 -333 205 -404
174 -88 416 -28 520 128 116 172 64 454 -107 576 l-27 19 -37 -50 -38 -51 46
-46 c78 -77 108 -209 70 -300 -17 -42 -67 -97 -106 -118 l-27 -14 -10 53 c-6
28 -27 135 -46 237 -54 282 -56 290 -68 289 -7 0 -40 -7 -73 -14z m35 -371
c23 -119 40 -218 38 -220 -10 -11 -116 19 -148 42 -70 48 -112 167 -89 252 17
65 96 141 146 142 7 0 28 -88 53 -216z"/>
<path d="M9433 4789 c-169 -33 -275 -160 -303 -362 -12 -80 6 -184 41 -247
l22 -39 41 25 c23 13 47 29 55 33 12 7 11 17 -7 59 -38 89 -24 211 33 285 31
42 115 87 162 87 18 0 33 -1 33 -3 0 -2 -29 -129 -65 -282 -48 -209 -61 -281
-52 -287 28 -17 127 -30 207 -26 164 9 259 91 304 265 31 119 14 233 -50 328
-58 88 -154 145 -276 165 -71 11 -86 11 -145 -1z m275 -226 c77 -57 97 -171
50 -275 -35 -75 -86 -110 -170 -116 -55 -4 -60 -3 -55 14 7 22 97 413 97 420
0 7 41 -16 78 -43z"/>
<path d="M1224 4125 c-94 -20 -199 -79 -269 -149 -122 -122 -170 -293 -130
-462 13 -58 186 -469 205 -488 4 -4 217 83 472 195 254 111 464 203 466 204 4
3 -158 367 -196 438 -68 130 -193 229 -333 262 -77 18 -133 18 -215 0z m258
-192 c92 -41 143 -105 216 -270 51 -116 58 -139 46 -146 -44 -25 -630 -277
-637 -274 -15 5 -116 246 -129 308 -30 145 53 304 193 372 108 53 208 56 311
10z"/>
<path d="M8950 3886 c-4 -12 -20 -48 -34 -80 l-27 -60 292 -285 c161 -157 296
-286 301 -286 8 0 68 126 68 140 0 2 -106 101 -235 220 -130 120 -235 219
-233 220 3 3 468 -29 581 -39 l58 -6 35 76 c19 42 32 79 30 82 -3 2 -155 11
-338 18 -183 7 -368 15 -411 17 -72 3 -79 2 -87 -17z"/>
<path d="M8783 3366 c-175 -57 -321 -296 -289 -471 l7 -37 47 7 c79 11 77 8
78 83 1 118 77 228 181 263 34 11 148 8 160 -5 4 -3 -67 -114 -156 -247 -189
-279 -185 -251 -42 -322 80 -40 89 -42 175 -42 70 0 100 5 131 20 61 29 149
125 187 202 31 63 33 75 33 168 0 90 -3 106 -28 158 -40 80 -111 148 -204 194
-67 33 -87 38 -157 40 -47 2 -98 -3 -123 -11z m342 -291 c25 -41 30 -58 30
-115 0 -57 -5 -74 -30 -115 -60 -97 -157 -136 -250 -100 -25 9 -45 19 -45 21
0 15 246 364 255 361 5 -2 24 -25 40 -52z"/>
<path d="M2065 2947 c-122 -41 -226 -131 -282 -244 -34 -68 -37 -83 -37 -156
0 -102 29 -172 105 -252 63 -67 123 -97 208 -104 l64 -6 -161 -144 -161 -144
57 -64 56 -63 35 33 c20 19 199 181 398 361 199 179 364 330 366 334 3 4 -19
34 -49 66 l-54 59 -47 -40 -48 -40 0 76 c0 64 -5 85 -29 130 -36 70 -111 142
-182 177 -66 32 -175 42 -239 21z m179 -169 c59 -18 138 -99 155 -161 31 -111
-23 -227 -138 -295 -38 -22 -58 -27 -117 -27 -61 0 -77 4 -120 30 -70 44 -114
119 -114 197 0 71 16 113 65 167 80 89 169 118 269 89z"/>
<path d="M8243 2770 c-29 -32 -53 -62 -52 -67 1 -12 784 -718 796 -718 5 0 33
26 62 57 l52 57 -383 347 c-211 191 -392 355 -403 365 -19 17 -21 16 -72 -41z"/>
<path d="M7960 2452 c-216 -72 -351 -295 -295 -487 33 -117 119 -221 222 -272
53 -25 68 -28 163 -28 99 0 109 2 167 32 90 47 176 132 215 211 30 61 33 74
33 162 0 84 -3 102 -29 153 -42 86 -132 178 -208 212 -82 37 -188 44 -268 17z
m154 -146 c63 -19 125 -72 161 -137 60 -109 32 -235 -66 -308 -127 -93 -291
-43 -368 111 -34 67 -39 115 -19 182 17 58 92 131 154 150 63 19 81 19 138 2z"/>
<path d="M2730 2314 c0 -16 3 -45 6 -65 l6 -36 67 -5 c178 -13 304 -167 259
-316 l-13 -44 -115 84 c-63 46 -171 124 -239 173 l-123 89 -29 -35 c-16 -19
-45 -67 -65 -108 -46 -92 -56 -180 -29 -260 26 -78 116 -171 213 -219 72 -35
81 -37 172 -37 88 0 101 3 162 33 78 38 151 113 193 199 102 209 11 425 -225
537 -53 24 -81 31 -152 34 l-88 4 0 -28z m80 -439 c91 -65 167 -120 169 -122
10 -7 -29 -38 -74 -59 -63 -30 -117 -30 -180 0 -93 43 -156 142 -139 219 12
61 33 100 47 90 6 -5 86 -63 177 -128z"/>
<path d="M7238 2294 l-68 -34 90 -180 c50 -99 90 -182 90 -185 0 -3 -15 1 -33
8 -159 67 -382 -38 -446 -209 -69 -184 33 -431 217 -521 50 -25 68 -28 153
-28 89 0 100 2 163 34 80 41 146 110 165 172 7 24 15 51 18 59 3 9 16 -7 34
-42 l29 -58 75 37 75 37 -239 470 c-131 259 -242 471 -247 473 -5 1 -39 -14
-76 -33z m99 -509 c62 -26 98 -60 133 -127 87 -162 7 -330 -173 -362 -91 -17
-197 46 -248 146 -33 65 -38 164 -10 222 53 109 192 165 298 121z"/>
<path d="M3239 1481 c-183 -224 -334 -412 -336 -417 -4 -13 157 -69 166 -58 5
5 122 159 261 342 139 183 254 331 256 330 1 -2 -11 -183 -27 -403 -16 -220
-28 -413 -27 -430 3 -27 9 -32 78 -57 60 -22 77 -25 85 -15 6 7 122 161 260
341 137 180 251 323 253 317 3 -9 -42 -682 -54 -792 l-6 -56 83 -31 c47 -18
86 -27 89 -22 3 5 14 209 23 452 10 244 20 482 24 529 l6 86 -69 25 c-38 15
-76 29 -85 33 -12 4 -78 -75 -269 -320 -139 -179 -255 -324 -257 -321 -2 2 8
173 22 379 14 206 25 390 25 409 0 32 -2 34 -72 61 -40 15 -78 27 -84 27 -6 0
-161 -184 -345 -409z"/>
<path d="M6343 1625 c-103 -29 -194 -89 -243 -160 -18 -26 -30 -48 -28 -49 1
-2 25 -17 52 -34 l49 -30 51 52 c85 88 217 120 311 77 37 -16 115 -91 115
-109 0 -4 -126 -41 -280 -82 -316 -85 -296 -71 -261 -171 43 -127 100 -202
184 -243 42 -22 65 -26 133 -26 198 0 351 102 404 269 24 76 25 136 5 216 -35
133 -99 219 -202 270 -48 24 -73 29 -148 32 -58 2 -109 -2 -142 -12z m337
-481 c-37 -132 -211 -202 -330 -132 -47 27 -100 102 -84 118 5 5 101 33 214
63 l205 54 3 -30 c2 -17 -2 -50 -8 -73z"/>
<path d="M5818 1521 c-31 -3 -59 -9 -63 -12 -3 -4 4 -102 16 -218 26 -254 22
-279 -52 -353 -44 -44 -69 -56 -151 -72 -24 -6 -26 -9 -22 -48 12 -104 13
-108 42 -108 67 0 187 88 207 150 11 34 25 5 25 -50 0 -69 5 -72 93 -64 45 4
77 11 77 18 1 6 -16 181 -37 389 -36 362 -38 377 -58 376 -11 -1 -46 -5 -77
-8z"/>
<path d="M5031 1506 c-48 -27 -63 -84 -36 -136 26 -50 105 -59 143 -15 65 76
-22 200 -107 151z"/>
</g>
</svg>
